Coordinates
version=1
nRows=34
nColumns=38
inDegrees=no

Units are S.I. units (second, meters, Newtons, ...)
If the header above contains a line with 'inDegrees', this indicates whether rotational values are in degrees (yes) or radians (no).

endheader
time	pelvis_tilt	pelvis_list	pelvis_rotation	pelvis_tx	pelvis_ty	pelvis_tz	hip_flexion_r	hip_adduction_r	hip_rotation_r	knee_angle_r	ankle_angle_r	subtalar_angle_r	mtp_angle_r	hip_flexion_l	hip_adduction_l	hip_rotation_l	knee_angle_l	ankle_angle_l	subtalar_angle_l	mtp_angle_l	lumbar_extension	lumbar_bending	lumbar_rotation	arm_flex_r	arm_add_r	arm_rot_r	elbow_flex_r	pro_sup_r	wrist_flex_r	wrist_dev_r	arm_flex_l	arm_add_l	arm_rot_l	elbow_flex_l	pro_sup_l	wrist_flex_l	wrist_dev_l
0	2.65324	1.40211	-0.977776	0.756705	-0.762347	0.950363	-0.037856	0.0371726	-0.271014	0.398988	-0.285609	0	0	-0.0146635	-0.10511	0.185102	0.500203	-0.158171	0	0	-0.678586	0.170914	0.0161551	0.941064	-0.356749	0.555706	0.629472	1.03442	0	0	0.911716	-0.174454	0.0767913	0.456372	1.5708	0	0
0.01	2.61678	1.41446	-0.94248	0.756887	-0.760351	0.949592	-0.0235527	0.036052	-0.259818	0.412701	-0.272035	0	0	-0.0027329	-0.102362	0.187846	0.4993	-0.15796	0	0	-0.666092	0.161264	0.0236379	0.923638	-0.368383	0.536202	0.639645	1.0522	0	0	0.914126	-0.163805	0.0814983	0.455551	1.5708	0	0
0.02	2.63531	1.4077	-0.960136	0.756405	-0.759165	0.949915	-0.0376074	0.0379304	-0.26614	0.391863	-0.293083	0	0	-0.0134519	-0.104167	0.186118	0.496814	-0.155787	0	0	-0.672984	0.170241	0.0160555	0.934119	-0.352987	0.537611	0.625103	1.06931	0	0	0.908593	-0.172895	0.0740202	0.457733	1.5708	0	0
0.03	2.62569	1.41127	-0.950746	0.756249	-0.757368	0.949676	-0.036423	0.0372706	-0.265837	0.390197	-0.289542	0	0	-0.0123447	-0.103266	0.185904	0.4951	-0.1549	0	0	-0.669359	0.169704	0.0165079	0.927723	-0.352826	0.52787	0.626269	1.07856	0	0	0.906904	-0.17188	0.073997	0.457962	1.5708	0	0
0.04	2.61334	1.41479	-0.938561	0.756096	-0.755529	0.949391	-0.0348474	0.0370649	-0.264832	0.38919	-0.284419	0	0	-0.0109266	-0.102735	0.185816	0.493759	-0.153788	0	0	-0.665423	0.169683	0.0172569	0.92051	-0.352758	0.518352	0.628038	1.08693	0	0	0.904796	-0.170554	0.0736663	0.458298	1.5708	0	0
0.05	2.60018	1.41774	-0.925646	0.755935	-0.753711	0.949081	-0.0328041	0.0369207	-0.264251	0.390624	-0.27738	0	0	-0.00986413	-0.102573	0.185792	0.49274	-0.152461	0	0	-0.661546	0.171109	0.0167255	0.915155	-0.350434	0.510808	0.628963	1.09425	0	0	0.901744	-0.170535	0.0719913	0.458626	1.5708	0	0
0.06	2.5867	1.42065	-0.912796	0.755849	-0.75195	0.948718	-0.0290307	0.0368528	-0.258211	0.405318	-0.269208	0	0	-0.00882669	-0.102411	0.185896	0.491885	-0.151188	0	0	-0.657422	0.172164	0.0160063	0.910925	-0.347903	0.504755	0.63033	1.10053	0	0	0.898125	-0.17092	0.0709986	0.459617	1.5708	0	0
0.07	2.58102	1.42136	-0.906085	0.755561	-0.75002	0.948633	-0.0341021	0.0379346	-0.262971	0.386041	-0.289348	0	0	-0.0108188	-0.1028	0.186222	0.490275	-0.149665	0	0	-0.655305	0.174462	0.0141926	0.906785	-0.34585	0.498351	0.633047	1.10798	0	0	0.894202	-0.171261	0.0696652	0.460241	1.5708	0	0
0.08	2.56893	1.42338	-0.894363	0.755443	-0.748151	0.948418	-0.0347349	0.039123	-0.260212	0.382666	-0.286338	0	0	-0.0111414	-0.103176	0.185389	0.488594	-0.148242	0	0	-0.651791	0.17598	0.0133873	0.902758	-0.344576	0.4933	0.636741	1.11341	0	0	0.888806	-0.172421	0.0682313	0.462836	1.5708	0	0
0.09	2.55666	1.42567	-0.882478	0.755344	-0.746209	0.948159	-0.0349852	0.0398615	-0.258278	0.380154	-0.281673	0	0	-0.0113829	-0.103382	0.184436	0.48671	-0.146691	0	0	-0.647727	0.177382	0.0122167	0.897793	-0.343301	0.487338	0.640972	1.11855	0	0	0.882191	-0.174719	0.0672468	0.466445	1.5708	0	0
0.1	2.54641	1.42854	-0.87255	0.755156	-0.744248	0.947866	-0.0344622	0.0393169	-0.257176	0.379321	-0.275382	0	0	-0.0114139	-0.102527	0.18467	0.484994	-0.145082	0	0	-0.643231	0.178529	0.0100788	0.892654	-0.341346	0.481296	0.644815	1.12425	0	0	0.87598	-0.177042	0.0652016	0.46867	1.5708	0	0
0.11	2.53369	1.43168	-0.8597	0.754896	-0.742233	0.947518	-0.0332313	0.0383686	-0.258165	0.379698	-0.267613	0	0	-0.0108099	-0.101615	0.185532	0.483679	-0.143452	0	0	-0.638136	0.180226	0.00748312	0.887234	-0.339026	0.475254	0.648367	1.13073	0	0	0.869521	-0.179075	0.0629048	0.470219	1.5708	0	0
0.12	2.51095	1.43573	-0.838	0.754816	-0.740275	0.947006	-0.0279785	0.0380371	-0.251394	0.394828	-0.25475	0	0	-0.00835577	-0.101137	0.185749	0.482901	-0.141503	0	0	-0.631546	0.181341	0.0064643	0.880586	-0.33694	0.467389	0.652395	1.13998	0	0	0.860193	-0.181839	0.0624548	0.476182	1.5708	0	0
0.13	2.49597	1.438	-0.822947	0.754591	-0.738193	0.946701	-0.0291499	0.038676	-0.249643	0.389907	-0.260345	0	0	-0.00843596	-0.10102	0.186207	0.481397	-0.140199	0	0	-0.626775	0.183427	0.0045748	0.874292	-0.334958	0.461398	0.656044	1.14791	0	0	0.850288	-0.184169	0.0601775	0.482864	1.5708	0	0
0.14	2.483	1.4399	-0.809259	0.754287	-0.736012	0.946492	-0.0333724	0.0395221	-0.253207	0.369235	-0.28006	0	0	-0.00916204	-0.100971	0.186674	0.479521	-0.138788	0	0	-0.622504	0.185993	0.00164333	0.86736	-0.332309	0.453736	0.660333	1.15867	0	0	0.839749	-0.186235	0.0551752	0.490695	1.5708	0	0
0.15	2.46433	1.44329	-0.790692	0.7541	-0.733857	0.946102	-0.0318136	0.0390152	-0.253513	0.368956	-0.275369	0	0	-0.00822485	-0.100337	0.186604	0.477767	-0.137376	0	0	-0.616503	0.187387	-0.00133406	0.859525	-0.329796	0.446434	0.665279	1.16678	0	0	0.829677	-0.188155	0.0500347	0.496558	1.5708	0	0
0.16	2.44356	1.44679	-0.770003	0.753898	-0.731667	0.945708	-0.0301037	0.0384715	-0.254184	0.368782	-0.26953	0	0	-0.00696054	-0.0996929	0.186285	0.476381	-0.135948	0	0	-0.610227	0.188583	-0.00419772	0.850332	-0.328028	0.43854	0.671642	1.17423	0	0	0.818504	-0.190532	0.0458835	0.503324	1.5708	0	0
0.17	2.41856	1.45047	-0.745085	0.753689	-0.729443	0.945276	-0.0280777	0.0381706	-0.25326	0.368504	-0.261847	0	0	-0.00514796	-0.0989043	0.186666	0.475393	-0.134439	0	0	-0.603633	0.189725	-0.00646494	0.840438	-0.327442	0.431747	0.67898	1.18173	0	0	0.808032	-0.19225	0.0419809	0.509034	1.5708	0	0
0.18	2.38873	1.45414	-0.716246	0.753569	-0.727387	0.944759	-0.0233283	0.0380351	-0.244692	0.382829	-0.248988	0	0	-0.00261725	-0.0981491	0.187037	0.475186	-0.132575	0	0	-0.596698	0.189512	-0.00743187	0.83062	-0.327003	0.424787	0.684387	1.19196	0	0	0.799571	-0.192652	0.0385611	0.512624	1.5708	0	0
0.19	2.35928	1.45764	-0.685359	0.753269	-0.724992	0.944459	-0.025576	0.0385654	-0.249101	0.36134	-0.272207	0	0	-0.000825231	-0.0975291	0.188681	0.473578	-0.131583	0	0	-0.590738	0.192526	-0.0091894	0.816624	-0.326736	0.409541	0.697273	1.20532	0	0	0.78853	-0.193182	0.0341375	0.518804	1.5708	0	0
0.2	2.29878	1.46428	-0.624701	0.753148	-0.722521	0.943827	-0.0191959	0.0379986	-0.247386	0.360205	-0.260567	0	0	0.00605571	-0.0961674	0.189955	0.473026	-0.130409	0	0	-0.580435	0.191499	-0.00652906	0.794553	-0.331244	0.385449	0.716992	1.22011	0	0	0.778686	-0.189697	0.0327983	0.524635	1.5708	0	0
0.21	2.21592	1.47181	-0.542872	0.753122	-0.720138	0.942932	-0.00698347	0.036507	-0.239714	0.378295	-0.234299	0	0	0.0155075	-0.0943218	0.190658	0.473776	-0.128481	0	0	-0.56847	0.189157	-0.00138975	0.769674	-0.33676	0.356668	0.739492	1.23954	0	0	0.769464	-0.18446	0.0329267	0.529943	1.5708	0	0
0.22	2.1546	1.4761	-0.481291	0.752935	-0.717785	0.942321	-0.00318254	0.0362496	-0.237591	0.375642	-0.234346	0	0	0.0201409	-0.0935131	0.19088	0.47281	-0.12713	0	0	-0.559983	0.189045	0.000540269	0.750486	-0.339325	0.336565	0.755592	1.254	0	0	0.758845	-0.18165	0.0322011	0.536461	1.5708	0	0
0.23	2.10433	1.47942	-0.430551	0.75269	-0.715468	0.941807	-0.00160191	0.0356145	-0.237086	0.371412	-0.23856	0	0	0.0231283	-0.0927202	0.19082	0.471855	-0.126123	0	0	-0.552885	0.18905	0.000698461	0.734039	-0.340443	0.320877	0.768364	1.26515	0	0	0.747116	-0.180342	0.0314316	0.543761	1.5708	0	0
0.24	2.06546	1.48139	-0.390426	0.752352	-0.713084	0.941469	-0.00471118	0.0358691	-0.242553	0.350345	-0.258709	0	0	0.0243084	-0.0925281	0.190815	0.470725	-0.125055	0	0	-0.547838	0.189871	0.000421169	0.716685	-0.341186	0.302761	0.782842	1.27825	0	0	0.734221	-0.179434	0.0299208	0.552848	1.5708	0	0
0.25	2.0132	1.4838	-0.338074	0.752131	-0.710809	0.940975	-0.00264286	0.0355706	-0.241727	0.349418	-0.249044	0	0	0.02701	-0.0919368	0.190299	0.470375	-0.123739	0	0	-0.541723	0.190129	0.000264623	0.700881	-0.34175	0.288788	0.795546	1.2884	0	0	0.722153	-0.17839	0.026156	0.560266	1.5708	0	0
0.26	1.93173	1.48697	-0.25808	0.752098	-0.708615	0.940246	0.00587357	0.0343752	-0.235212	0.367577	-0.225594	0	0	0.0327212	-0.090835	0.189257	0.471361	-0.121627	0	0	-0.533753	0.189192	0.00249568	0.681631	-0.342861	0.269772	0.812225	1.30469	0	0	0.710383	-0.176944	0.0233678	0.56745	1.5708	0	0
0.27	1.87849	1.48838	-0.205134	0.751936	-0.706335	0.939772	0.00721118	0.0343052	-0.234995	0.365697	-0.225536	0	0	0.0347791	-0.090617	0.188338	0.471109	-0.120273	0	0	-0.528417	0.18947	0.00341971	0.664254	-0.343375	0.254497	0.826456	1.31562	0	0	0.697847	-0.176763	0.022624	0.57588	1.5708	0	0
0.28	1.83418	1.4893	-0.161328	0.751811	-0.704069	0.939372	0.00742037	0.034578	-0.233569	0.363091	-0.228823	0	0	0.0357086	-0.0904733	0.187464	0.470677	-0.119147	0	0	-0.524073	0.189501	0.00473672	0.647269	-0.34362	0.239818	0.839622	1.32584	0	0	0.686561	-0.176056	0.021465	0.583221	1.5708	0	0
0.29	1.80381	1.48942	-0.130818	0.751616	-0.701671	0.939141	0.00281432	0.0356103	-0.238171	0.341773	-0.256191	0	0	0.0349283	-0.0908759	0.186698	0.469715	-0.117578	0	0	-0.521525	0.189966	0.00767095	0.62657	-0.344384	0.218523	0.857155	1.34093	0	0	0.676632	-0.173778	0.0207021	0.590215	1.5708	0	0
0.3	1.75394	1.48994	-0.0820146	0.751545	-0.69939	0.938726	0.00391502	0.0357919	-0.237115	0.340774	-0.249944	0	0	0.0360378	-0.0907567	0.186135	0.469418	-0.115728	0	0	-0.517028	0.189745	0.00997576	0.608459	-0.344381	0.202812	0.871224	1.34989	0	0	0.666188	-0.17249	0.0192906	0.596642	1.5708	0	0
0.31	1.70239	1.49703	-0.0302211	0.752238	-0.69651	0.936996	0.0159254	0.0238681	-0.250154	0.371985	-0.237704	0	0	0.0377143	-0.0852077	0.182634	0.470936	-0.111174	0	0	-0.50793	0.181233	0.0101704	0.584298	-0.34224	0.180143	0.886794	1.36036	0	0	0.65655	-0.173329	0.0263998	0.601621	1.5708	0	0
0.32	1.65241	1.48991	0.0176245	0.75135	-0.694792	0.937854	0.00533279	0.0370922	-0.232912	0.336816	-0.238822	0	0	0.0384201	-0.0908625	0.186463	0.469339	-0.111502	0	0	-0.50877	0.189576	0.0179282	0.567085	-0.345428	0.16317	0.905783	1.36709	0	0	0.644865	-0.169431	0.0228754	0.611952	1.5708	0	0
0.33	1.5831	1.48988	0.0846898	0.751372	-0.69262	0.937226	0.0114678	0.0367995	-0.224905	0.354087	-0.219017	0	0	0.0413764	-0.0903143	0.18673	0.469804	-0.109087	0	0	-0.503766	0.188266	0.0232878	0.546735	-0.34658	0.144841	0.923241	1.36676	0	0	0.6343	-0.167771	0.0253467	0.620355	1.5708	0	0
